<svg xmlns="http://www.w3.org/2000/svg" width="85.501221" height="21" viewBox="0 0 22.622198 5.5562501">
  <g transform="translate(-93.741874 -126.56815) scale(1.26667)">
    <circle cx="76.199997" cy="102.11548" r="1.984375" fill="#5091cd"/>
    <text xml:space="preserve" x="75.737083" y="103.71556" fill="#fff" stroke-width=".1288114" font-family="sans-serif" font-size="5.15245628" font-weight="400" letter-spacing="0" style="line-height:1.25" word-spacing="0"><tspan x="75.737083" y="103.71556" font-family="Uroob" style="-inkscape-font-specification:Uroob">i</tspan></text>
  </g>
  <path d="M8.1786349.3462293 7.558001.4490654v3.0881837c0 .1333801.013465.2531308.040824.3591509.03078.1026004.082176.1896629.1539957.261483.07182.0684.1676209.1215432.2873211.1591632.1231201.03762.2767901.058075.4614703.061495l.087333-.5131469c-.08208-.010261-.1504354-.023725-.2051555-.040824-.0513-.020521-.09221-.047966-.12299-.082166-.03078-.03762-.052983-.082025-.066663-.1333251-.010261-.0513-.015502-.1144124-.015502-.1896525zM6.4650445.47438687c-.1060204 0-.196578.034436-.2718181.10283608-.07524.0684001-.1126545.16245313-.1126545.28215333 0 .11628016.037415.20858552.1126545.27698572.07524.0684.1657977.1023193.2718181.1023193.1026002 0 .1914102-.033919.2666503-.1023193.07524-.0684.1131715-.16070556.1131715-.27698572 0-.1197002-.037931-.21375322-.1131715-.28215333-.0752401-.06840011-.1640501-.10283608-.2666503-.10283608Zm5.9458905 0c-.10602 0-.196578.034436-.271818.10283608-.07524.0684001-.113172.16245313-.113172.28215333 0 .11628016.03793.20858552.113172.27698572.07524.0684.165798.1023193.271818.1023193.1026 0 .191409-.033919.26665-.1023193.07524-.0684.112655-.16070556.112655-.27698572 0-.1197002-.03742-.21375322-.112655-.28215333-.07524-.0684001-.16405-.10283608-.26665-.10283608zm5.843054.21549071c-.171 0-.326935.0274455-.467155.0821655-.140221.0547201-.259971.12831821-.359151.22065835-.09918.0923401-.175757.19985747-.230477.32297767-.0513.1197003-.077.2464416-.077.3798218 0 .1846803.03741.3418457.112654.4718058.07866.1265402.196664.2445434.353984.3539836-.07182.04788-.140175.1027711-.205155.1643311-.06498.06156-.12285.1299152-.17415.2051553-.0513.07182-.09273.152409-.123507.2413291-.02736.0855-.04082.1795532-.04082.2821533s.01871.2118651.05633.3281452c.04104.1128602.107648.21863.199988.3178101.09234.09918.215586.1815166.369487.2464967.1539.06498.347249.097668.579809.097668.198361 0 .372486-.025699.522966-.076998.1539-.0513.282389-.1231506.384989-.2154907.1026-.09234.179694-.2021221.230994-.3286623.0513-.1265401.077-.2632506.077-.4103108 0-.1949402-.04965-.3643391-.148829-.5079793-.09576-.1436403-.244703-.2698649-.446484-.379305.133381-.0855.251384-.2000081.353984-.3436483.1026-.1470603.153995-.3147114.153995-.5028117 0-.1060202-.02046-.2158019-.0615-.3286621-.04104-.1128602-.107647-.2151346-.199987-.3074748-.08892-.0923401-.205692-.16768592-.349333-.22582599-.14022-.0581401-.31085-.0873332-.51263-.0873332zm1.728577.0821655v.53381752h1.636592c-.123121.1607402-.248114.360563-.374654.5999634-.12312.2359804-.237628.490694-.343648.7642944-.1026.2701804-.189663.5488443-.261483.8361247-.07182.2872806-.117973.561218-.138493.8211386h.636137c.020521-.3112207.073663-.6243204.159163-.9389608.08892-.3146406.192942-.6090332.312643-.8826335.1197-.2770205.246441-.5247435.379822-.7436239.133379-.2188803.256109-.3917744.368969-.5183146V.77204311Zm-1.728577.42581382c.09234 0 .170664.015212.235644.045992.06498.03078.118124.068711.159164.1131714.04446.04446.0754.094108.0925.1488281.02052.0513.03049.0992.03049.1436605 0 .1573203-.03567.2870402-.107487.3896403-.07182.09918-.171117.1879903-.297656.2666504-.229141-.0684-.393297-.1607055-.492477-.2769857-.09576-.1162802-.14366-.2390095-.14366-.3689697 0-.0513.01048-.1026958.03101-.1539958.02052-.05472.05094-.1043681.09198-.1488281.04104-.04788.09418-.085811.159164-.1131714.0684-.03078.148989-.045992.241329-.045992zm-7.982459.3901571c-.20862 0-.3949784.032172-.5591386.097152-.1641602.06498-.3043658.1555379-.420646.2718181-.1128604.1162802-.1999229.2564859-.2614829.4206461-.05814.1641603-.087333.344045-.087333.5389853 0 .2086203.027446.3932309.082166.5539714.05814.1573202.1364644.2887877.2356445.3948078.1026001.1060201.2240987.1866088.3643188.2413288.1436402.05472.3013223.082166.4723232.082166.12996 0 .244468-.015729.343648-.046509.102601-.03078.18442-.061204.24598-.091984v.1023191c0 .2017805-.05314.3542197-.159164.4568198-.10602.1026001-.28364.153479-.5333005.153479-.1573205 0-.3045166-.013465-.4413168-.040824-.1333808-.027361-.2531317-.0630279-.3591518-.1074879l-.1126546.5281332c.1265402.04446.2667458.080644.420646.1080037.1573204.02736.317981.040824.4821412.040824.4480205 0 .7798285-.099296.9952885-.2976562.21888-.1983603.328145-.5114602.328145-.9389608V1.7311577c-.12654-.0342-.28021-.0663717-.461471-.0971517-.18126-.03078-.372861-.045992-.574642-.045992Zm-4.1139604.0563273v2.6830404h.6206342V1.6443413Zm5.9453734 0v2.6830404h.620634V1.6443413Zm1.251603 0v.5177978h1.236617c-.09234.1094402-.198626.2379292-.318327.3849894-.116279.1470602-.234283.302478-.353983.4666382-.119701.1607402-.235956.3214008-.348816.4821412-.11286.1607402-.206913.3096842-.282153.4464844v.3849894h2.134236v-.5183148h-1.384928c.1026-.1573202.217108-.3214762.343648-.4924764.129961-.1744202.257933-.3403237.384473-.4976439.12654-.1607403.244543-.3061889.353983-.4361491.112861-.1299602.203418-.230487.271819-.3023072v-.436149zm-3.077848.4614705c.09918 0 .181517.00524.246497.015503.06498.00684.119354.015578.163814.025838v1.3900961c-.05472.03762-.12657.069792-.215491.097152-.0855.02736-.177806.041341-.276985.041341-.181261 0-.3296879-.060134-.4459681-.1798339-.1128601-.1231205-.1694987-.3159525-.1694987-.5792929 0-.2428204.059617-.4379171.1793172-.5849773.1197001-.1504803.2925946-.225826.5183146-.225826zm7.787121.6154663c.116281.03078.222567.066964.318327.1080036.09576.03762.17758.083773.24598.138493.07182.0513.126711.1126646.164331.1844847.03762.07182.05633.1559041.05633.2516643 0 .06156-.01171.1229249-.03566.1844849-.02394.05814-.06012.1112835-.108004.1591633-.04788.04446-.109245.080127-.184485.107487-.07524.02736-.16405.041341-.26665.041341-.11286 0-.206913-.015729-.282154-.046509-.07524-.0342-.137121-.07511-.185001-.1229897-.04788-.04788-.0818-.1010235-.102319-.1591635-.02052-.05814-.03101-.1125144-.03101-.1638144 0-.1539002.03793-.2858844.113171-.3953246.07524-.1128601.17402-.208661.297139-.287321z" font-family="Ubuntu" font-size="5.13000822" font-weight="500" letter-spacing="0" style="line-height:1.25;-inkscape-font-specification:'Ubuntu Medium'" word-spacing="0"/>
</svg>
